<?xml version="1.0" standalone="no"?>
<!DOCTYPE svg PUBLIC "-//W3C//DTD SVG 20010904//EN"
 "http://www.w3.org/TR/2001/REC-SVG-20010904/DTD/svg10.dtd">
<svg version="1.0" xmlns="http://www.w3.org/2000/svg"
 width="300.000000pt" height="300.000000pt" viewBox="0 0 300.000000 300.000000"
 preserveAspectRatio="xMidYMid meet">
<metadata>
Created by potrace 1.11, written by Peter Selinger 2001-2013
</metadata>
<g transform="translate(0.000000,300.000000) scale(0.100000,-0.100000)"
fill="#000000" stroke="none">
<path d="M716 2193 c-17 -78 -26 -226 -15 -239 15 -18 43 -18 58 0 18 22 -9
266 -29 266 -5 0 -11 -12 -14 -27z"/>
<path d="M481 2155 c0 -16 14 -77 32 -135 31 -103 33 -105 62 -105 23 0 31 5
33 22 3 22 -71 177 -108 223 l-20 25 1 -30z"/>
<path d="M270 2031 c0 -5 26 -45 59 -88 93 -124 111 -139 139 -111 26 26 10
49 -85 128 -94 78 -113 90 -113 71z"/>
<path d="M158 1802 c18 -16 70 -49 116 -73 73 -38 86 -42 100 -30 9 8 16 24
14 35 -2 16 -22 28 -90 53 -47 18 -106 35 -130 38 l-43 6 33 -29z"/>
<path d="M756 1795 c-12 -31 17 -61 48 -49 38 14 27 64 -14 64 -16 0 -30 -7
-34 -15z"/>
<path d="M568 1793 l-48 -4 0 -140 0 -139 30 0 c30 0 30 1 30 54 l0 53 46 6
c72 8 116 65 93 123 -14 39 -64 54 -151 47z m86 -59 c9 -8 16 -22 16 -29 0
-19 -39 -45 -67 -45 -21 0 -23 5 -23 45 0 43 1 45 29 45 16 0 37 -7 45 -16z"/>
<path d="M887 1773 c-4 -3 -7 -17 -7 -30 0 -14 -6 -23 -15 -23 -9 0 -15 -9
-15 -25 0 -16 6 -25 15 -25 12 0 15 -13 15 -58 0 -76 18 -102 71 -102 32 0 39
3 39 20 0 13 -7 20 -20 20 -25 0 -40 29 -40 79 0 39 1 41 31 41 26 0 30 3 27
23 -2 16 -10 22 -28 22 -21 1 -25 5 -25 33 0 26 -4 32 -21 32 -11 0 -24 -3
-27 -7z"/>
<path d="M1047 1773 c-4 -3 -7 -17 -7 -30 0 -14 -6 -23 -15 -23 -9 0 -15 -9
-15 -25 0 -16 6 -25 15 -25 12 0 15 -13 15 -58 0 -76 18 -102 71 -102 32 0 39
3 39 20 0 13 -7 20 -20 20 -25 0 -40 29 -40 79 0 39 1 41 31 41 26 0 30 3 27
23 -2 16 -10 22 -28 22 -21 1 -25 5 -25 33 0 26 -4 32 -21 32 -11 0 -24 -3
-27 -7z"/>
<path d="M754 1698 c3 -13 6 -60 6 -105 0 -82 0 -83 25 -83 l25 0 0 105 0 105
-31 0 c-28 0 -31 -3 -25 -22z"/>
<path d="M160 1603 c-84 -12 -92 -15 -83 -24 12 -12 170 -39 225 -39 42 0 63
24 47 53 -8 14 -24 17 -87 16 -42 -1 -88 -3 -102 -6z"/>
<path d="M2176 1465 c-12 -31 17 -61 48 -49 38 14 27 64 -14 64 -16 0 -30 -7
-34 -15z"/>
<path d="M568 1463 l-48 -4 0 -140 0 -139 30 0 c30 0 30 1 30 54 l0 53 46 6
c72 8 116 65 93 123 -14 39 -64 54 -151 47z m86 -59 c9 -8 16 -22 16 -29 0
-19 -39 -45 -67 -45 -21 0 -23 5 -23 45 0 43 1 45 29 45 16 0 37 -7 45 -16z"/>
<path d="M1331 1406 c-7 -8 -32 -13 -66 -13 -70 0 -95 -20 -95 -74 0 -21 4
-40 9 -43 11 -7 2 -87 -10 -101 -14 -14 -10 -71 5 -84 8 -7 30 -15 50 -18 82
-13 156 27 156 85 0 41 -28 62 -82 62 -26 0 -53 3 -62 6 -29 11 -17 24 23 24
56 0 91 31 91 80 0 30 5 40 20 45 29 9 26 45 -4 45 -13 0 -29 -6 -35 -14z
m-41 -61 c20 -24 8 -50 -24 -50 -36 0 -56 26 -37 49 17 20 45 21 61 1z m1
-175 c24 0 29 -4 29 -24 0 -30 -48 -50 -85 -36 -42 16 -29 78 13 64 8 -2 27
-4 43 -4z"/>
<path d="M828 1384 c-16 -8 -28 -10 -28 -4 0 5 -10 10 -23 10 -23 0 -23 -2
-22 -105 l0 -105 28 0 c27 0 27 0 27 68 0 75 10 92 51 92 21 0 28 6 31 25 3
14 2 25 -3 25 -4 0 -13 2 -21 5 -7 2 -25 -2 -40 -11z"/>
<path d="M970 1381 c-71 -37 -75 -150 -7 -191 38 -24 68 -25 107 -5 41 21 60
53 60 103 0 54 -12 77 -50 97 -38 20 -68 19 -110 -4z m90 -52 c28 -52 -8 -131
-50 -109 -45 24 -52 79 -16 115 27 27 50 25 66 -6z"/>
<path d="M1488 1384 c-16 -8 -28 -10 -28 -4 0 5 -10 10 -23 10 -23 0 -23 -2
-22 -105 l0 -105 28 0 c27 0 27 0 27 68 0 75 10 92 51 92 21 0 28 6 31 25 3
14 2 25 -3 25 -4 0 -13 2 -21 5 -7 2 -25 -2 -40 -11z"/>
<path d="M1623 1381 c-59 -37 -64 -148 -8 -185 34 -22 140 -22 149 0 11 30 6
34 -39 27 -39 -5 -49 -2 -70 17 -13 13 -22 27 -19 31 3 5 34 9 70 9 l64 0 0
34 c0 47 -27 76 -75 82 -29 4 -49 0 -72 -15z m81 -37 c26 -25 19 -34 -29 -34
-42 0 -45 2 -35 19 9 18 24 28 42 30 4 1 14 -6 22 -15z"/>
<path d="M1847 1388 c-27 -10 -42 -40 -35 -74 1 -10 23 -29 47 -43 24 -14 42
-30 40 -36 -2 -5 -23 -10 -47 -10 -23 0 -42 -3 -42 -7 0 -3 -3 -13 -6 -22 -5
-14 3 -16 53 -16 70 0 103 19 103 59 0 30 -17 50 -67 75 -46 23 -41 36 12 36
37 0 45 3 45 19 0 29 -50 39 -103 19z"/>
<path d="M2027 1388 c-27 -10 -42 -40 -35 -74 1 -10 23 -29 47 -43 24 -14 42
-30 40 -36 -2 -5 -23 -10 -47 -10 -23 0 -42 -3 -42 -7 0 -3 -3 -13 -6 -22 -5
-14 3 -16 53 -16 70 0 103 19 103 59 0 30 -17 50 -67 75 -46 23 -41 36 12 36
37 0 45 3 45 19 0 29 -50 39 -103 19z"/>
<path d="M2543 1381 c-59 -37 -64 -148 -8 -185 34 -22 140 -22 149 0 11 30 6
34 -39 27 -39 -5 -49 -2 -70 17 -13 13 -22 27 -19 31 3 5 34 9 70 9 l64 0 0
34 c0 47 -27 76 -75 82 -29 4 -49 0 -72 -15z m81 -37 c26 -25 19 -34 -29 -34
-42 0 -45 2 -35 19 9 18 24 28 42 30 4 1 14 -6 22 -15z"/>
<path d="M2767 1388 c-27 -10 -42 -40 -35 -74 1 -10 23 -29 47 -43 24 -14 42
-30 40 -36 -2 -5 -23 -10 -47 -10 -23 0 -42 -3 -42 -7 0 -3 -3 -13 -6 -22 -5
-14 3 -16 53 -16 70 0 103 19 103 59 0 30 -17 50 -67 75 -46 23 -41 36 12 36
37 0 45 3 45 19 0 29 -50 39 -103 19z"/>
<path d="M2174 1368 c3 -13 6 -60 6 -105 0 -82 0 -83 25 -83 l25 0 0 105 0
105 -31 0 c-28 0 -31 -3 -25 -22z"/>
<path d="M2270 1378 c0 -7 15 -55 32 -106 32 -90 34 -93 62 -90 26 3 32 12 67
97 21 51 39 97 39 102 0 5 -12 9 -28 9 -25 0 -29 -5 -48 -72 l-21 -73 -23 73
c-21 68 -24 72 -51 72 -16 0 -29 -5 -29 -12z"/>
</g>
</svg>
